<svg xmlns:dc="http://purl.org/dc/elements/1.1/" xmlns:cc="http://creativecommons.org/ns#" xmlns:rdf="http://www.w3.org/1999/02/22-rdf-syntax-ns#" xmlns:svg="http://www.w3.org/2000/svg" xmlns="http://www.w3.org/2000/svg" xmlns:sodipodi="http://sodipodi.sourceforge.net/DTD/sodipodi-0.dtd" xmlns:inkscape="http://www.inkscape.org/namespaces/inkscape" viewBox="0 0 841.88645 1052.3400625" version="1.1" x="0px" y="0px"><g transform="translate(497.6744,-3463.2163)"><path style="" d="m -483.599,4291.0272 -14.061,-14.061 196.5638,-196.5667 196.5637,-196.5667 -196.5709,-196.5739 -196.571,-196.5739 13.7699,-13.7272 13.7698,-13.7272 195.9291,195.9261 c 107.761,107.7594 196.490199,195.9261 197.176099,195.9261 0.6859,0 89.4183,-88.17 197.183291,-195.9333 l 195.93626,-195.9333 14.061,14.0611 14.06101,14.0609 -195.93327,195.9363 c -107.763291,107.765 -195.933291,196.4974 -195.933291,197.1833 0,0.6859 88.0357,89.2841 195.634921,196.8849 l 195.63494,195.6379 -13.76986,13.7272 -13.76985,13.7272 -196.24005,-196.2371 -196.240101,-196.2371 -196.566699,196.5637 -196.5667,196.5638 -14.0611,-14.0611 z" fill="#000000"/></g><text x="0" y="856.87205" fill="#000000" font-size="5px" font-weight="bold" font-family="'Helvetica Neue', Helvetica, Arial-Unicode, Arial, Sans-serif">Created by Hector M</text><text x="0" y="861.87205" fill="#000000" font-size="5px" font-weight="bold" font-family="'Helvetica Neue', Helvetica, Arial-Unicode, Arial, Sans-serif">from the Noun Project</text></svg>